<svg xmlns="http://www.w3.org/2000/svg" version="1.1" xmlns:xlink="http://www.w3.org/1999/xlink" xmlns:svgjs="http://svgjs.dev/svgjs" viewBox="0 0 9.206242887149536 1.8393020247648426"><g transform="matrix(1,0,0,1,0.3204010123824217,0.5671510123824213)"><g><path d=" M 0.0785 0.6835 Q 0.029 0.6569999999999999 -0.001 0.61 L 0.03 0.576 Q 0.059000000000000004 0.619 0.0985 0.6415 Q 0.138 0.6639999999999999 0.185 0.6639999999999999 Q 0.255 0.6639999999999999 0.2895 0.6234999999999999 Q 0.324 0.583 0.324 0.49899999999999994 L 0.324 0.050999999999999934 L 0.066 0.050999999999999934 L 0.066 0.004999999999999893 L 0.375 0.004999999999999893 L 0.375 0.49899999999999994 Q 0.375 0.604 0.327 0.6569999999999999 Q 0.279 0.71 0.185 0.71 Q 0.128 0.71 0.0785 0.6835 M 0.7335278320312499 0.6639999999999999 Q 0.6510278320312499 0.618 0.6035278320312499 0.5369999999999999 Q 0.55602783203125 0.45599999999999996 0.55602783203125 0.3549999999999999 Q 0.55602783203125 0.25399999999999995 0.6035278320312499 0.17299999999999993 Q 0.6510278320312499 0.09199999999999997 0.7335278320312499 0.04599999999999993 Q 0.81602783203125 0 0.9190278320312499 0 Q 0.9950278320312499 0 1.05902783203125 0.024499999999999966 Q 1.12302783203125 0.04899999999999993 1.16802783203125 0.09699999999999998 L 1.13602783203125 0.1299999999999999 Q 1.05202783203125 0.04699999999999993 0.9210278320312499 0.04699999999999993 Q 0.8330278320312499 0.04699999999999993 0.7610278320312499 0.08699999999999997 Q 0.68902783203125 0.127 0.6480278320312499 0.1974999999999999 Q 0.6070278320312499 0.26799999999999996 0.6070278320312499 0.3549999999999999 Q 0.6070278320312499 0.44199999999999995 0.6480278320312499 0.5125 Q 0.68902783203125 0.583 0.7610278320312499 0.623 Q 0.8330278320312499 0.6629999999999999 0.9210278320312499 0.6629999999999999 Q 1.05102783203125 0.6629999999999999 1.13602783203125 0.579 L 1.16802783203125 0.612 Q 1.12302783203125 0.6599999999999999 1.05852783203125 0.6849999999999999 Q 0.9940278320312499 0.71 0.9190278320312499 0.71 Q 0.81602783203125 0.71 0.7335278320312499 0.6639999999999999" fill="#404040" fill-rule="nonzero"></path></g><g><path d=" M 2.890392034259693 0.0674999999999999 Q 2.9653920342596933 0.1299999999999999 2.9653920342596933 0.24099999999999994 Q 2.9653920342596933 0.351 2.890392034259693 0.4135 Q 2.815392034259693 0.476 2.6833920342596933 0.476 L 2.483392034259693 0.476 L 2.483392034259693 0.705 L 2.432392034259693 0.705 L 2.432392034259693 0.004999999999999893 L 2.6833920342596933 0.004999999999999893 Q 2.815392034259693 0.004999999999999893 2.890392034259693 0.0674999999999999 M 2.854392034259693 0.38099999999999995 Q 2.913392034259693 0.33199999999999996 2.913392034259693 0.24099999999999994 Q 2.913392034259693 0.1499999999999999 2.854392034259693 0.10049999999999992 Q 2.795392034259693 0.050999999999999934 2.6833920342596933 0.050999999999999934 L 2.483392034259693 0.050999999999999934 L 2.483392034259693 0.42999999999999994 L 2.6833920342596933 0.42999999999999994 Q 2.795392034259693 0.42999999999999994 2.854392034259693 0.38099999999999995 M 3.1474091241034428 0.004999999999999893 L 3.198409124103443 0.004999999999999893 L 3.198409124103443 0.6589999999999999 L 3.601409124103443 0.6589999999999999 L 3.601409124103443 0.705 L 3.1474091241034428 0.705 L 3.1474091241034428 0.004999999999999893 M 3.8394540459784428 0.6635 Q 3.7564540459784426 0.617 3.7089540459784427 0.5359999999999999 Q 3.661454045978443 0.45499999999999996 3.661454045978443 0.3549999999999999 Q 3.661454045978443 0.25499999999999995 3.7089540459784427 0.17399999999999993 Q 3.7564540459784426 0.09299999999999997 3.8394540459784428 0.046499999999999986 Q 3.9224540459784425 0 4.025454045978442 0 Q 4.128454045978443 0 4.211454045978442 0.04599999999999993 Q 4.294454045978442 0.09199999999999997 4.341954045978443 0.17299999999999993 Q 4.389454045978443 0.25399999999999995 4.389454045978443 0.3549999999999999 Q 4.389454045978443 0.45599999999999996 4.341954045978443 0.5369999999999999 Q 4.294454045978442 0.618 4.211454045978442 0.6639999999999999 Q 4.128454045978443 0.71 4.025454045978442 0.71 Q 3.9224540459784425 0.71 3.8394540459784428 0.6635 M 4.184454045978443 0.623 Q 4.255454045978443 0.583 4.296454045978443 0.5125 Q 4.3374540459784425 0.44199999999999995 4.3374540459784425 0.3549999999999999 Q 4.3374540459784425 0.26799999999999996 4.296454045978443 0.1974999999999999 Q 4.255454045978443 0.127 4.184454045978443 0.08699999999999997 Q 4.113454045978442 0.04699999999999993 4.025454045978442 0.04699999999999993 Q 3.9374540459784426 0.04699999999999993 3.8659540459784427 0.08699999999999997 Q 3.794454045978443 0.127 3.7534540459784425 0.1974999999999999 Q 3.7124540459784425 0.26799999999999996 3.7124540459784425 0.3549999999999999 Q 3.7124540459784425 0.44199999999999995 3.7534540459784425 0.5125 Q 3.794454045978443 0.583 3.8659540459784427 0.623 Q 3.9374540459784426 0.6629999999999999 4.025454045978442 0.6629999999999999 Q 4.113454045978442 0.6629999999999999 4.184454045978443 0.623 M 5.238466741290942 0.705 L 5.237466741290943 0.10599999999999998 L 4.944466741290943 0.612 L 4.919466741290942 0.612 L 4.626466741290942 0.10799999999999998 L 4.626466741290942 0.705 L 4.576466741290942 0.705 L 4.576466741290942 0.004999999999999893 L 4.6194667412909425 0.004999999999999893 L 4.932466741290942 0.5459999999999999 L 5.245466741290943 0.004999999999999893 L 5.287466741290943 0.004999999999999893 L 5.288466741290942 0.705 L 5.238466741290942 0.705 M 6.072960393634692 0.40299999999999997 Q 6.112460393634692 0.44799999999999995 6.112460393634692 0.52 Q 6.112460393634692 0.609 6.047460393634692 0.6569999999999999 Q 5.9824603936346925 0.705 5.854460393634692 0.705 L 5.542460393634692 0.705 L 5.542460393634692 0.004999999999999893 L 5.834460393634692 0.004999999999999893 Q 5.948460393634692 0.004999999999999893 6.011960393634692 0.05149999999999999 Q 6.0754603936346925 0.09799999999999998 6.0754603936346925 0.18399999999999994 Q 6.0754603936346925 0.24399999999999994 6.043960393634692 0.285 Q 6.012460393634692 0.32599999999999996 5.9584603936346925 0.344 Q 6.033460393634693 0.35799999999999993 6.072960393634692 0.40299999999999997 M 5.593460393634692 0.04899999999999993 L 5.593460393634692 0.32799999999999996 L 5.832460393634692 0.32799999999999996 Q 5.924460393634693 0.32799999999999996 5.973960393634692 0.2924999999999999 Q 6.023460393634692 0.25699999999999995 6.023460393634692 0.18799999999999994 Q 6.023460393634692 0.12 5.973960393634692 0.08449999999999991 Q 5.924460393634693 0.04899999999999993 5.832460393634692 0.04899999999999993 L 5.593460393634692 0.04899999999999993 M 6.008960393634692 0.6255 Q 6.061460393634692 0.59 6.061460393634692 0.516 Q 6.061460393634692 0.44199999999999995 6.008960393634692 0.407 Q 5.956460393634693 0.37199999999999994 5.854460393634692 0.37199999999999994 L 5.593460393634692 0.37199999999999994 L 5.593460393634692 0.6609999999999999 L 5.854460393634692 0.6609999999999999 Q 5.956460393634693 0.6609999999999999 6.008960393634692 0.6255 M 6.787474553790942 0.6589999999999999 L 6.787474553790942 0.705 L 6.304474553790942 0.705 L 6.304474553790942 0.004999999999999893 L 6.772474553790942 0.004999999999999893 L 6.772474553790942 0.050999999999999934 L 6.355474553790942 0.050999999999999934 L 6.355474553790942 0.32699999999999996 L 6.728474553790942 0.32699999999999996 L 6.728474553790942 0.37199999999999994 L 6.355474553790942 0.37199999999999994 L 6.355474553790942 0.6589999999999999 L 6.787474553790942 0.6589999999999999 M 7.4694809014471915 0.705 L 7.302480901447192 0.471 Q 7.265480901447192 0.476 7.234480901447192 0.476 L 7.034480901447192 0.476 L 7.034480901447192 0.705 L 6.983480901447192 0.705 L 6.983480901447192 0.004999999999999893 L 7.234480901447192 0.004999999999999893 Q 7.366480901447192 0.004999999999999893 7.441480901447192 0.0674999999999999 Q 7.516480901447192 0.1299999999999999 7.516480901447192 0.24099999999999994 Q 7.516480901447192 0.32399999999999995 7.473980901447192 0.38049999999999995 Q 7.431480901447192 0.43699999999999994 7.3524809014471915 0.45999999999999996 L 7.527480901447192 0.705 L 7.4694809014471915 0.705 M 7.234480901447192 0.43099999999999994 Q 7.346480901447192 0.43099999999999994 7.405480901447191 0.38149999999999995 Q 7.464480901447192 0.33199999999999996 7.464480901447192 0.24099999999999994 Q 7.464480901447192 0.1499999999999999 7.405480901447191 0.10049999999999992 Q 7.346480901447192 0.050999999999999934 7.234480901447192 0.050999999999999934 L 7.034480901447192 0.050999999999999934 L 7.034480901447192 0.43099999999999994 L 7.234480901447192 0.43099999999999994 M 7.7134516045721915 0.004999999999999893 L 7.764451604572192 0.004999999999999893 L 7.764451604572192 0.705 L 7.7134516045721915 0.705 L 7.7134516045721915 0.004999999999999893 M 8.501434514728441 0.6589999999999999 L 8.501434514728441 0.705 L 8.018434514728442 0.705 L 8.018434514728442 0.004999999999999893 L 8.486434514728442 0.004999999999999893 L 8.486434514728442 0.050999999999999934 L 8.06943451472844 0.050999999999999934 L 8.06943451472844 0.32699999999999996 L 8.442434514728442 0.32699999999999996 L 8.442434514728442 0.37199999999999994 L 8.06943451472844 0.37199999999999994 L 8.06943451472844 0.6589999999999999 L 8.501434514728441 0.6589999999999999" fill="#404040" fill-rule="nonzero"></path></g><g></g><g clip-path="url(#SvgjsClipPath1001)"><g clip-path="url(#SvgjsClipPath1000026c9c3c-e9af-4ee5-95cd-3659742769d6)"><path d=" M 1.7667630764487856 0.9517500000000005 C 1.6481757807542659 0.9529417007212835 1.533961783499129 0.9070268542349085 1.4491964102413948 0.8240859213535787 C 1.112424812787621 0.4825089627710883 1.5607600521163434 -0.036899384110887445 1.7295421692868356 -0.23243299622475136 C 1.7444398401180452 -0.2496924318044667 1.770508228772701 -0.2516072680669633 1.7877679539598765 -0.2367099327619942 C 1.8050273895395912 -0.22181226193078504 1.806942225802086 -0.1957438732761299 1.79204489049712 -0.17848414808895374 C 1.5485072069015402 0.1036780704896792 1.2540756298396205 0.5085834137066314 1.508016672579845 0.7660748091708223 C 1.5865702907561512 0.8457513296040127 1.713970157106836 0.8839960594119414 1.832551938087299 0.8635030932238412 C 1.9499275128456817 0.8436591293737381 2.049406130140183 0.7660144048041984 2.0971605522679044 0.6569716442999256 C 2.207799451107774 0.4196099231171972 1.9877436352958193 0.14117970321585094 1.8562484783612112 -0.025174963487557073 C 1.8402801477376065 -0.045387204111438706 1.8255007724448173 -0.06409673730331447 1.8125543699537046 -0.08108889057290025 C 1.7987835683031657 -0.09922106426880406 1.8022928863245404 -0.125079197057883 1.8203981724833975 -0.13888533026536884 C 1.8385260307168365 -0.1526597901143416 1.8643834550039853 -0.14915795608231047 1.8781946121758661 -0.13105804100416055 C 1.8908437758342744 -0.11442917964121219 1.905325912294359 -0.09611596489294172 1.9209639775482932 -0.07633306924963318 C 2.0642661214486484 0.10496610543139984 2.3040718063669434 0.4084139270853447 2.1719656584984426 0.6919137204111456 C 2.113074554150632 0.8257024043874259 1.9907463575244044 0.9208210356336597 1.8465717030298434 0.944930020116288 C 1.8202125280601829 0.9494792745692755 1.7935119399990676 0.9517609511406062 1.7667630764487843 0.9517500000000005 Z" fill="#4e888f" transform="matrix(1,0,0,1,0,0)" fill-rule="nonzero"></path></g></g></g><defs><clipPath id="SvgjsClipPath1001"><path d=" M 1.32703125 -0.24674999999999997 h 0.883360784259693 v 1.1985 h -0.883360784259693 Z"></path></clipPath><clipPath id="SvgjsClipPath1000026c9c3c-e9af-4ee5-95cd-3659742769d6"><path d=" M 1.32703125 -0.24674999999999997 L 2.210392034259693 -0.24674999999999997 L 2.210392034259693 0.9517499999999999 L 1.32703125 0.9517499999999999 Z"></path></clipPath></defs></svg>